<svg width="24" height="24" viewBox="0 0 24 24" fill="none" xmlns="http://www.w3.org/2000/svg">
<path d="M20.0156 0H3.98438C1.78387 0 0 1.82961 0 4.08654V19.9135C0 22.1704 1.78387 24 3.98438 24H20.0156C22.2161 24 24 22.1704 24 19.9135V4.08654C24 1.82961 22.2161 0 20.0156 0Z" fill="#00005B"/>
<path d="M9.8369 15.1844H6.02848L5.25357 17.5961C5.24363 17.6374 5.22039 17.6743 5.18742 17.7012C5.15444 17.728 5.11357 17.7432 5.07107 17.7446L3.12688 17.7445C3.01686 17.7445 2.97837 17.684 3.01149 17.563L6.3088 8.10617L6.34173 8.00681L6.35267 7.97282L6.37475 7.90178C6.3857 7.86511 6.39664 7.82623 6.40768 7.78409C6.45088 7.56415 6.47296 7.34057 6.47363 7.11641C6.47141 7.10073 6.47285 7.08476 6.47787 7.06974C6.48288 7.05473 6.49131 7.04108 6.50251 7.02989C6.5137 7.0187 6.52734 7.01026 6.54236 7.00525C6.55738 7.00024 6.57335 6.99879 6.58903 7.00102H9.2104C9.2872 7.00102 9.33107 7.02847 9.3423 7.08348L13.0847 17.5796C13.1176 17.6896 13.0847 17.7446 12.9858 17.7445H10.8425C10.8057 17.7486 10.7687 17.7391 10.7383 17.7179C10.708 17.6966 10.6864 17.6651 10.6777 17.6291L9.8369 15.1844ZM6.62205 13.1511H9.22691L9.18976 13.0285L9.13015 12.8344L9.04288 12.5563L8.87536 12.0315L8.71581 11.5271L8.41898 10.5874C8.33696 10.328 8.25824 10.0675 8.18282 9.80614L8.09853 9.50892L8.00752 9.18319L7.92438 8.88108H7.90787C7.82542 9.27681 7.72496 9.66858 7.60682 10.0552L7.49546 10.4126L7.22762 11.2766L7.09187 11.7167C7.0673 11.7962 7.04291 11.8748 7.01843 11.9525L6.94547 12.1827L6.8729 12.4075L6.80071 12.6268L6.7289 12.8406C6.69319 12.9462 6.65747 13.0496 6.62205 13.1511ZM19.1518 14.2458H15.904C15.9438 14.5672 16.0505 14.8766 16.2172 15.1541C16.4016 15.4289 16.6623 15.6438 16.9673 15.7723C17.3806 15.9512 17.8277 16.0388 18.278 16.0292C18.6352 16.0224 18.9911 15.9833 19.3414 15.9125C19.6546 15.8702 19.9616 15.7902 20.2556 15.6742C20.3105 15.6305 20.3381 15.6577 20.3381 15.7566V17.3228C20.3408 17.3656 20.3323 17.4082 20.3133 17.4465C20.2945 17.4764 20.2691 17.5018 20.2392 17.5207C19.913 17.6652 19.5698 17.7674 19.2177 17.825C18.7395 17.9148 18.2534 17.9562 17.7669 17.9486C17.0108 17.9486 16.3734 17.8351 15.8548 17.6082L15.8049 17.5859C15.3064 17.3662 14.8661 17.0332 14.5191 16.6132C14.195 16.2175 13.9538 15.7605 13.8101 15.2696C13.6679 14.785 13.5958 14.2826 13.596 13.7776C13.5945 13.2261 13.6807 12.678 13.8515 12.1536C14.016 11.6422 14.2761 11.1667 14.6181 10.7523C14.9554 10.3428 15.3771 10.0109 15.8546 9.77954C16.3381 9.54338 16.9097 9.45862 17.5691 9.45862C18.116 9.44479 18.6593 9.55175 19.1601 9.77186C19.5812 9.95147 19.952 10.2315 20.2399 10.5874C20.51 10.9359 20.7165 11.3294 20.8499 11.7497C20.9798 12.1547 21.0466 12.5773 21.0478 13.0026C21.0478 13.2446 21.0395 13.4644 21.0231 13.6622L21.0084 13.8315L20.9931 13.9922L20.9839 14.0736C20.9832 14.0794 20.9825 14.0851 20.9818 14.0908C20.9775 14.1271 20.9601 14.1606 20.9327 14.185C20.9054 14.2093 20.8701 14.2227 20.8335 14.2227L20.7883 14.2237L20.7319 14.2266L20.6881 14.2297L20.5855 14.2385L20.4955 14.2474C20.471 14.25 20.4456 14.2524 20.4192 14.2546L20.3375 14.261L20.2502 14.2668L20.1576 14.2716L20.0595 14.2757L20.0083 14.2774L19.902 14.2803C19.7969 14.2829 19.6892 14.2764 19.5787 14.2683L19.4111 14.256C19.3248 14.2497 19.2383 14.2463 19.1518 14.2458ZM15.9041 12.7439H18.1492L18.3404 12.7427L18.4704 12.7409L18.5546 12.7389L18.649 12.7357C18.7336 12.7272 18.8152 12.7002 18.8881 12.6565V12.5576C18.8848 12.4287 18.8626 12.3009 18.8222 12.1784C18.7333 11.8971 18.5544 11.6528 18.3132 11.483C18.072 11.3132 17.7816 11.2273 17.4868 11.2386C17.2094 11.2218 16.933 11.2861 16.6915 11.4237C16.45 11.5613 16.2537 11.7662 16.1266 12.0135C16.0137 12.2434 15.9385 12.49 15.9041 12.7439Z" fill="#9999FF"/>
</svg>
