<svg width="24" height="24" viewBox="0 0 24 24" fill="none" xmlns="http://www.w3.org/2000/svg">
<path d="M20.0156 0H3.98438C1.78387 0 0 1.82961 0 4.08654V19.9135C0 22.1704 1.78387 24 3.98438 24H20.0156C22.2161 24 24 22.1704 24 19.9135V4.08654C24 1.82961 22.2161 0 20.0156 0Z" fill="#F4F4F4"/>
<mask id="mask0_179_1699" style="mask-type:luminance" maskUnits="userSpaceOnUse" x="7" y="5" width="11" height="15">
<path d="M13.3784 5H7.95676C7.43054 5 7 5.43128 7 5.9584V18.0982C7 18.6253 7.43054 19.0566 7.95676 19.0566H16.2487C16.7749 19.0566 17.2055 18.6253 17.2055 18.0982V8.83362L13.3784 5Z" fill="white"/>
</mask>
<g mask="url(#mask0_179_1699)">
<path d="M13.3784 5H7.95676C7.43054 5 7 5.43128 7 5.9584V18.0982C7 18.6253 7.43054 19.0566 7.95676 19.0566H16.2487C16.7749 19.0566 17.2055 18.6253 17.2055 18.0982V8.83362L14.973 7.23628L13.3784 5Z" fill="#4285F4"/>
</g>
<mask id="mask1_179_1699" style="mask-type:luminance" maskUnits="userSpaceOnUse" x="7" y="5" width="11" height="15">
<path d="M13.3784 5H7.95676C7.43054 5 7 5.43128 7 5.9584V18.0982C7 18.6253 7.43054 19.0566 7.95676 19.0566H16.2487C16.7749 19.0566 17.2055 18.6253 17.2055 18.0982V8.83362L13.3784 5Z" fill="white"/>
</mask>
<g mask="url(#mask1_179_1699)">
<path d="M13.6602 8.55328L17.2074 12.1058V8.83362L13.6602 8.55328Z" fill="url(#paint0_linear_179_1699)"/>
</g>
<mask id="mask2_179_1699" style="mask-type:luminance" maskUnits="userSpaceOnUse" x="7" y="5" width="11" height="15">
<path d="M13.3784 5H7.95676C7.43054 5 7 5.43128 7 5.9584V18.0982C7 18.6253 7.43054 19.0566 7.95676 19.0566H16.2487C16.7749 19.0566 17.2055 18.6253 17.2055 18.0982V8.83362L13.3784 5Z" fill="white"/>
</mask>
<g mask="url(#mask2_179_1699)">
<path d="M9.55273 15.223H14.6555V14.5841H9.55273V15.223ZM9.55273 16.5009H13.3798V15.8619H9.55273V16.5009ZM9.55273 12.0283V12.6673H14.6555V12.0283H9.55273ZM9.55273 13.9451H14.6555V13.3062H9.55273V13.9451Z" fill="#F1F1F1"/>
</g>
<mask id="mask3_179_1699" style="mask-type:luminance" maskUnits="userSpaceOnUse" x="7" y="5" width="11" height="15">
<path d="M13.3784 5H7.95676C7.43054 5 7 5.43128 7 5.9584V18.0982C7 18.6253 7.43054 19.0566 7.95676 19.0566H16.2487C16.7749 19.0566 17.2055 18.6253 17.2055 18.0982V8.83362L13.3784 5Z" fill="white"/>
</mask>
<g mask="url(#mask3_179_1699)">
<path d="M13.377 5V7.87521C13.377 8.40473 13.8051 8.83362 14.3337 8.83362H17.204L13.377 5Z" fill="#A1C2FA"/>
</g>
<mask id="mask4_179_1699" style="mask-type:luminance" maskUnits="userSpaceOnUse" x="7" y="5" width="11" height="15">
<path d="M13.3784 5H7.95676C7.43054 5 7 5.43128 7 5.9584V18.0982C7 18.6253 7.43054 19.0566 7.95676 19.0566H16.2487C16.7749 19.0566 17.2055 18.6253 17.2055 18.0982V8.83362L13.3784 5Z" fill="white"/>
</mask>
<g mask="url(#mask4_179_1699)">
<path d="M7.95676 5C7.43054 5 7 5.43128 7 5.9584V6.03827C7 5.51115 7.43054 5.07987 7.95676 5.07987H13.3784V5H7.95676Z" fill="white" fill-opacity="0.2"/>
</g>
<mask id="mask5_179_1699" style="mask-type:luminance" maskUnits="userSpaceOnUse" x="7" y="5" width="11" height="15">
<path d="M13.3784 5H7.95676C7.43054 5 7 5.43128 7 5.9584V18.0982C7 18.6253 7.43054 19.0566 7.95676 19.0566H16.2487C16.7749 19.0566 17.2055 18.6253 17.2055 18.0982V8.83362L13.3784 5Z" fill="white"/>
</mask>
<g mask="url(#mask5_179_1699)">
<path d="M16.2487 18.9767H7.95676C7.43054 18.9767 7 18.5455 7 18.0183V18.0982C7 18.6253 7.43054 19.0566 7.95676 19.0566H16.2487C16.7749 19.0566 17.2055 18.6253 17.2055 18.0982V18.0183C17.2055 18.5455 16.7749 18.9767 16.2487 18.9767Z" fill="#1A237E" fill-opacity="0.2"/>
</g>
<mask id="mask6_179_1699" style="mask-type:luminance" maskUnits="userSpaceOnUse" x="7" y="5" width="11" height="15">
<path d="M13.3784 5H7.95676C7.43054 5 7 5.43128 7 5.9584V18.0982C7 18.6253 7.43054 19.0566 7.95676 19.0566H16.2487C16.7749 19.0566 17.2055 18.6253 17.2055 18.0982V8.83362L13.3784 5Z" fill="white"/>
</mask>
<g mask="url(#mask6_179_1699)">
<path d="M14.3357 8.83359C13.8071 8.83359 13.3789 8.4047 13.3789 7.87518V7.95505C13.3789 8.48457 13.8071 8.91345 14.3357 8.91345H17.206V8.83359H14.3357Z" fill="#1A237E" fill-opacity="0.1"/>
</g>
<path d="M13.3823 5H7.96067C7.43445 5 7.00391 5.43128 7.00391 5.9584V18.0982C7.00391 18.6253 7.43445 19.0566 7.96067 19.0566H16.2526C16.7788 19.0566 17.2094 18.6253 17.2094 18.0982V8.83362L13.3823 5Z" fill="url(#paint1_radial_179_1699)"/>
<defs>
<linearGradient id="paint0_linear_179_1699" x1="191.039" y1="39.0553" x2="191.039" y2="363.852" gradientUnits="userSpaceOnUse">
<stop stop-color="#1A237E" stop-opacity="0.2"/>
<stop offset="1" stop-color="#1A237E" stop-opacity="0.02"/>
</linearGradient>
<radialGradient id="paint1_radial_179_1699" cx="0" cy="0" r="1" gradientUnits="userSpaceOnUse" gradientTransform="translate(39.3354 32.6217) scale(1645.62 1638.93)">
<stop stop-color="white" stop-opacity="0.1"/>
<stop offset="1" stop-color="white" stop-opacity="0"/>
</radialGradient>
</defs>
</svg>
