<svg width="78" height="78" viewBox="0 0 78 78" fill="none" xmlns="http://www.w3.org/2000/svg">
<circle cx="39" cy="39" r="39" fill="#8300E9"/>
<path d="M44.9501 14.6846H43.0052C38.4946 14.6846 34.8379 18.3413 34.8379 22.8519C34.8379 27.3625 38.4946 31.0193 43.0052 31.0193H45.7505C50.2443 31.0193 53.8836 34.6694 53.8704 39.1638V39.3277C53.856 43.8023 50.2251 47.423 45.7499 47.423H38.1122" stroke="white" stroke-width="2.44602" stroke-linecap="round" stroke-linejoin="round"/>
<path d="M38.114 47.4268C31.2653 47.4268 25.7129 41.8744 25.7129 35.0256C25.7129 28.1769 31.2653 22.6245 38.114 22.6245H44.9628V53.9327C44.8397 55.3617 44.3857 57.6272 42.6847 59.4328C38.9384 63.4084 31.1073 63.0709 27.725 58.932C26.353 57.2532 25.9891 55.2867 25.9056 53.9327" stroke="white" stroke-width="2.44602" stroke-linecap="round" stroke-linejoin="round"/>
</svg>
