<svg width="24" height="24" viewBox="0 0 24 24" fill="none" xmlns="http://www.w3.org/2000/svg">
<path d="M20.0156 0H3.98438C1.78387 0 0 1.82961 0 4.08654V19.9135C0 22.1704 1.78387 24 3.98438 24H20.0156C22.2161 24 24 22.1704 24 19.9135V4.08654C24 1.82961 22.2161 0 20.0156 0Z" fill="#F4F4F4"/>
<path d="M9.64348 20C11.1027 20 12.287 18.8053 12.287 17.3333V14.6667H9.64348C8.18428 14.6667 7 15.8613 7 17.3333C7 18.8053 8.18428 20 9.64348 20Z" fill="#0ACF83"/>
<path d="M7 12C7 10.528 8.18428 9.33331 9.64348 9.33331H12.287V14.6666H9.64348C8.18428 14.6666 7 13.472 7 12Z" fill="#A259FF"/>
<path d="M7 6.66666C7 5.19467 8.18428 4 9.64348 4H12.287V9.33333H9.64348C8.18428 9.33333 7 8.13866 7 6.66666Z" fill="#F24E1E"/>
<path d="M12.2871 4H14.9306C16.3898 4 17.5741 5.19467 17.5741 6.66666C17.5741 8.13866 16.3898 9.33333 14.9306 9.33333H12.2871V4Z" fill="#FF7262"/>
<path d="M17.5741 12C17.5741 13.472 16.3898 14.6666 14.9306 14.6666C13.4714 14.6666 12.2871 13.472 12.2871 12C12.2871 10.528 13.4714 9.33331 14.9306 9.33331C16.3898 9.33331 17.5741 10.528 17.5741 12Z" fill="#1ABCFE"/>
</svg>
