<svg width="24" height="24" viewBox="0 0 24 24" fill="none" xmlns="http://www.w3.org/2000/svg">
<path d="M20.0156 0H3.98438C1.78387 0 0 1.82961 0 4.08654V19.9135C0 22.1704 1.78387 24 3.98438 24H20.0156C22.2161 24 24 22.1704 24 19.9135V4.08654C24 1.82961 22.2161 0 20.0156 0Z" fill="#330000"/>
<path d="M11.6766 14.8553H7.95754L7.20079 17.2059C7.1905 17.2488 7.16556 17.2867 7.13029 17.3132C7.09502 17.3397 7.05162 17.353 7.00758 17.3509H5.12386C5.01651 17.3509 4.97892 17.2918 5.01117 17.1737L8.2312 7.90012C8.26336 7.80356 8.29561 7.69359 8.32776 7.57012C8.36995 7.35525 8.39151 7.137 8.39217 6.91809C8.38998 6.90278 8.39138 6.88717 8.39627 6.87249C8.40115 6.85782 8.40939 6.84448 8.42032 6.83354C8.43126 6.82259 8.44459 6.81435 8.45926 6.80945C8.47393 6.80455 8.48954 6.80313 8.50486 6.80531H11.0648C11.1398 6.80531 11.1827 6.83222 11.1936 6.88594L14.8483 17.1898C14.8805 17.2972 14.8483 17.351 14.7517 17.3509H12.6586C12.6227 17.3549 12.5865 17.3456 12.5569 17.3249C12.5273 17.3041 12.5062 17.2733 12.4977 17.2382L11.6766 14.8553ZM8.53711 12.8268H11.0809L11.0446 12.7071L10.9864 12.5175L10.9449 12.3844L10.8786 12.1747L10.7377 11.7335L10.6138 11.3422L10.2919 10.3232C10.2118 10.0699 10.1349 9.81553 10.0613 9.56025L10.0024 9.35306L9.93361 9.10809L9.82861 8.72841L9.80892 8.65687H9.79289C9.71233 9.04332 9.61423 9.42591 9.49889 9.80344L9.26001 10.5718L9.12858 10.9963L8.99592 11.4261C8.97192 11.5037 8.94811 11.5805 8.9242 11.6563L8.85295 11.8811L8.78208 12.1007L8.71158 12.3148L8.64145 12.5236C8.6182 12.5923 8.59495 12.6601 8.57179 12.727L8.53711 12.8268ZM17.0216 8.51194C16.8574 8.51853 16.6936 8.49039 16.541 8.42936C16.3885 8.36832 16.2505 8.27577 16.1361 8.15775C16.0221 8.03461 15.9335 7.89014 15.8754 7.73264C15.8174 7.57515 15.7911 7.40774 15.798 7.24003C15.7921 7.07401 15.8214 6.90862 15.8838 6.75467C15.9462 6.60072 16.0404 6.46167 16.1602 6.34659C16.3913 6.12475 16.6991 6.0006 17.0194 6L17.0537 6.00038C17.4402 6.00038 17.7435 6.11569 17.9635 6.3465C18.0745 6.46642 18.1608 6.60707 18.2175 6.7604C18.2741 6.91372 18.2999 7.07671 18.2935 7.24003C18.3002 7.4084 18.2731 7.57641 18.2136 7.73408C18.1542 7.89175 18.0636 8.03586 17.9474 8.15784C17.83 8.27353 17.6907 8.36456 17.5376 8.42559C17.3845 8.48661 17.2207 8.51638 17.056 8.51316L17.0216 8.51194ZM15.9106 17.1898V9.49406C15.9106 9.3975 15.9534 9.34912 16.0395 9.34912H18.0198C18.1056 9.34912 18.1485 9.39741 18.1486 9.49406V17.1898C18.1486 17.2972 18.1057 17.351 18.0198 17.3509H16.0556C15.9641 17.3509 15.9159 17.3027 15.9111 17.2063L15.9106 17.1898Z" fill="#FF9A00"/>
</svg>
