<svg width="24" height="24" viewBox="0 0 24 24" fill="none" xmlns="http://www.w3.org/2000/svg">
<path d="M20.0156 0H3.98438C1.78387 0 0 1.82961 0 4.08654V19.9135C0 22.1704 1.78387 24 3.98438 24H20.0156C22.2161 24 24 22.1704 24 19.9135V4.08654C24 1.82961 22.2161 0 20.0156 0Z" fill="#F4F4F4"/>
<path d="M12.8809 11.5L14.4112 13.2605L16.4692 14.584L16.8272 11.5111L16.4692 8.50745L14.3718 9.6701L12.8809 11.5Z" fill="#00832D"/>
<path d="M4 14.2981V16.9166C4 17.5145 4.48221 18 5.0764 18H7.67817L8.21692 16.0215L7.67817 14.2981L5.89317 13.7558L4 14.2981Z" fill="#0066DA"/>
<path d="M7.67817 5L4 8.70194L5.89329 9.24288L7.67817 8.70194L8.20711 7.00199L7.67817 5Z" fill="#E94235"/>
<path d="M4 14.2993H7.67811V8.7019H4V14.2993Z" fill="#2684FC"/>
<path d="M18.8184 6.56741L16.4688 8.50749V14.584L18.8281 16.5316C19.1813 16.8101 19.698 16.5563 19.698 16.1044V6.98596C19.698 6.52908 19.169 6.27654 18.8184 6.56747" fill="#00AC47"/>
<path d="M12.8799 11.5V14.2981H7.67773V18H15.3919C15.9861 18 16.4683 17.5145 16.4683 16.9166V14.584L12.8799 11.5Z" fill="#00AC47"/>
<path d="M15.3919 5H7.67773V8.70194H12.8799V11.5L16.4683 8.50742V6.08342C16.4683 5.48539 15.9861 5.00006 15.3919 5.00006" fill="#FFBA00"/>
</svg>
